<?xml version="1.0" standalone="no"?>
<!DOCTYPE svg PUBLIC "-//W3C//DTD SVG 20010904//EN"
 "http://www.w3.org/TR/2001/REC-SVG-20010904/DTD/svg10.dtd">
<svg version="1.0" xmlns="http://www.w3.org/2000/svg"
 width="700.000000pt" height="700.000000pt" viewBox="0 0 700.000000 700.000000"
 preserveAspectRatio="xMidYMid meet">
<metadata>
Created by potrace 1.14, written by Peter Selinger 2001-2017
</metadata>
<g transform="translate(0.000000,700.000000) scale(0.100000,-0.100000)"
fill="#000000" stroke="none">
<path d="M0 3495 l0 -3495 3495 0 3495 0 0 3495 0 3495 -3495 0 -3495 0 0
-3495z m1760 1940 c216 -58 329 -177 365 -382 41 -227 -9 -450 -124 -562 -60
-58 -126 -92 -236 -123 -73 -20 -109 -22 -410 -25 -400 -5 -375 -14 -375 127
l0 90 293 0 c319 0 382 8 459 53 36 21 53 40 75 84 27 56 28 64 28 203 0 138
-1 148 -27 200 -31 63 -62 90 -134 116 -43 16 -91 19 -371 22 l-323 3 0 87 c0
75 3 89 23 110 l22 24 335 -5 c280 -3 346 -7 400 -22z m1636 4 c18 -20 19 -44
19 -541 l0 -520 -24 -19 c-19 -16 -40 -19 -124 -19 -90 0 -103 2 -124 22 -21
20 -23 29 -23 135 l0 113 -279 0 -278 0 -29 -107 c-21 -80 -35 -115 -55 -135
-27 -27 -31 -28 -136 -28 -118 0 -133 6 -133 51 0 43 200 789 226 845 30 64
108 138 179 169 103 46 169 53 476 54 278 1 286 0 305 -20z m604 -1 c23 -16
110 -141 274 -394 l241 -371 5 375 5 374 24 19 c34 28 198 28 232 0 l24 -19 0
-522 0 -522 -24 -19 c-21 -17 -41 -19 -181 -19 -147 0 -159 1 -191 23 -24 16
-99 124 -254 364 l-220 342 -5 -345 -5 -346 -24 -19 c-19 -16 -40 -19 -119
-19 -85 0 -98 3 -119 22 l-23 21 0 516 0 515 22 23 c20 22 28 23 163 23 131 0
145 -2 175 -22z m-970 -1363 c318 -48 460 -224 460 -568 -1 -310 -117 -480
-380 -554 -53 -14 -101 -18 -250 -18 -174 1 -190 2 -266 28 -187 62 -288 170
-335 357 -20 81 -18 308 4 390 37 139 112 238 225 298 140 74 337 99 542 67z
m-1450 -15 c321 -24 473 -128 535 -365 22 -82 22 -278 1 -369 -44 -187 -167
-304 -371 -352 -54 -12 -143 -17 -392 -21 l-322 -5 -25 26 c-24 23 -26 33 -26
105 l0 79 313 5 c334 4 382 10 451 58 74 51 114 181 102 336 -10 138 -50 215
-131 256 -62 31 -136 37 -435 37 l-300 0 0 75 c0 86 13 121 49 134 34 12 391
13 551 1z m3107 -24 c22 -26 25 -37 21 -88 -7 -98 16 -93 -398 -96 l-360 -3 0
-114 0 -114 311 -3 311 -3 19 -24 c14 -17 19 -39 19 -86 0 -57 -3 -66 -26 -84
-26 -20 -38 -21 -330 -21 l-304 0 0 -120 0 -120 357 0 c418 0 393 6 393 -101
0 -117 39 -109 -517 -109 l-474 0 -24 25 -25 24 0 498 c0 274 3 509 7 522 13
49 32 51 531 48 l464 -2 25 -29z m975 5 c100 -32 186 -95 220 -160 36 -69 37
-123 3 -156 -21 -22 -33 -25 -94 -25 -89 0 -114 12 -150 70 -46 75 -71 82
-292 84 -176 1 -189 0 -216 -20 -40 -30 -51 -66 -30 -98 32 -49 71 -61 440
-146 290 -67 411 -176 394 -356 -15 -154 -102 -236 -292 -275 -79 -16 -484
-12 -561 6 -119 27 -232 103 -268 180 -24 50 -23 122 1 146 25 26 113 35 171
20 36 -10 49 -21 74 -61 50 -81 67 -85 320 -85 215 0 217 0 242 24 34 32 35
79 2 110 -34 32 -101 54 -290 96 -255 56 -380 103 -449 170 -59 58 -77 102
-77 193 0 164 93 262 284 298 50 9 136 12 286 10 189 -3 223 -6 282 -25z
m-2700 -1351 c353 -34 518 -216 518 -575 0 -233 -72 -393 -219 -487 -186 -117
-596 -123 -791 -10 -60 34 -134 105 -164 156 -13 22 -34 75 -47 116 -20 64
-24 96 -24 220 0 208 31 314 122 411 105 113 234 161 478 178 11 0 68 -4 127
-9z m-848 -42 c11 -16 16 -46 16 -105 l0 -83 -294 0 c-161 0 -318 -5 -347 -10
-161 -30 -223 -123 -223 -335 0 -135 22 -206 78 -261 73 -70 111 -76 474 -81
l312 -5 0 -82 c0 -74 -2 -85 -24 -105 l-24 -23 -324 4 c-291 5 -331 7 -403 27
-264 71 -374 227 -375 528 0 268 103 443 300 508 117 39 169 43 497 44 322 1
322 1 337 -21z m2316 -2 c154 -43 255 -116 311 -228 43 -85 59 -166 59 -303 0
-193 -41 -314 -137 -407 -58 -56 -125 -91 -230 -120 -71 -19 -109 -22 -406
-26 l-329 -4 -24 23 -24 22 0 507 c0 503 0 508 21 534 l22 28 336 -5 c282 -3
346 -7 401 -21z m1569 -2 c32 -40 29 -126 -4 -159 l-24 -25 -356 0 -355 0 0
-120 0 -120 314 0 c314 0 315 0 330 -22 10 -14 16 -44 16 -82 0 -48 -4 -64
-22 -83 l-21 -23 -309 0 -308 0 0 -120 0 -120 353 0 c421 0 397 6 397 -105 0
-65 -3 -76 -22 -89 -20 -14 -84 -16 -499 -16 -471 0 -476 0 -495 21 -18 20
-19 46 -22 528 -2 503 -2 508 18 534 l21 27 484 0 484 0 20 -26z"/>
<path d="M2827 5230 c-43 -13 -95 -57 -116 -98 -10 -20 -33 -90 -51 -156 -17
-65 -34 -125 -37 -132 -4 -12 36 -14 246 -14 l251 0 0 205 0 205 -132 -1 c-73
0 -146 -5 -161 -9z"/>
<path d="M2782 3879 c-116 -20 -191 -82 -229 -192 -27 -77 -26 -291 2 -366 27
-72 82 -133 146 -160 109 -48 289 -36 377 23 95 63 146 229 124 402 -26 195
-113 283 -297 297 -38 3 -94 1 -123 -4z"/>
<path d="M2713 2472 c-78 -28 -118 -64 -155 -139 -33 -67 -33 -68 -33 -218 0
-150 0 -150 33 -218 55 -112 141 -157 297 -157 155 0 242 45 295 154 74 150
48 427 -48 519 -52 50 -117 71 -232 74 -83 3 -116 -1 -157 -15z"/>
<path d="M3940 2116 l0 -346 143 0 c308 1 400 56 429 260 22 154 -19 318 -91
370 -60 42 -119 53 -303 58 l-178 4 0 -346z"/>
</g>
</svg>
