<?xml version="1.0" standalone="no"?>
<!DOCTYPE svg PUBLIC "-//W3C//DTD SVG 20010904//EN"
 "http://www.w3.org/TR/2001/REC-SVG-20010904/DTD/svg10.dtd">
<svg version="1.0" xmlns="http://www.w3.org/2000/svg"
 width="700.000000pt" height="700.000000pt" viewBox="0 0 700.000000 700.000000"
 preserveAspectRatio="xMidYMid meet">
<metadata>
Created by potrace 1.14, written by Peter Selinger 2001-2017
</metadata>
<g transform="translate(0.000000,700.000000) scale(0.100000,-0.100000)"
fill="#000000" stroke="none">
<path d="M0 3495 l0 -3495 3495 0 3495 0 0 3495 0 3495 -3495 0 -3495 0 0
-3495z m1485 2145 c288 -42 437 -158 501 -391 25 -90 25 -338 0 -428 -63 -230
-206 -344 -483 -386 -70 -11 -185 -15 -404 -15 -380 0 -359 -8 -359 141 l0 99
294 0 c393 0 501 17 569 88 63 66 93 216 76 371 -21 183 -90 255 -266 281 -37
5 -204 10 -370 10 l-303 0 0 99 c0 150 -22 141 364 141 171 0 343 -5 381 -10z
m1880 4 c44 -17 45 -33 45 -609 0 -560 -1 -573 -39 -602 -17 -13 -215 -18
-246 -7 -33 13 -45 59 -45 179 l0 115 -304 0 -303 0 -29 -111 c-33 -126 -52
-165 -90 -179 -14 -6 -74 -10 -134 -10 -169 0 -167 -40 -30 478 62 235 121
451 132 479 23 61 101 152 162 188 120 70 207 83 568 84 163 1 304 -2 313 -5z
m693 -29 c22 -19 152 -209 298 -433 l259 -399 5 406 c3 223 9 414 14 424 15
30 41 37 146 37 94 0 103 -2 125 -25 l25 -24 0 -566 0 -566 -25 -24 c-24 -25
-27 -25 -195 -25 -182 0 -204 5 -246 52 -11 12 -126 187 -255 387 l-234 365
-5 -378 -5 -378 -28 -24 c-26 -22 -37 -24 -132 -24 -103 0 -103 0 -129 31
l-26 31 0 549 c0 399 3 556 12 572 23 43 36 46 200 47 l158 0 38 -35z m-1129
-1475 c228 -24 383 -103 471 -240 59 -93 82 -185 88 -357 7 -244 -35 -381
-152 -499 -108 -108 -255 -160 -476 -170 -334 -16 -567 84 -670 287 -52 101
-64 168 -65 344 0 178 12 242 66 353 103 212 384 319 738 282z m2761 -20 c158
-10 232 -32 324 -94 83 -57 126 -128 126 -207 0 -50 -3 -60 -26 -78 -22 -17
-41 -21 -108 -21 -97 1 -116 10 -159 75 -52 81 -79 89 -295 93 -101 2 -199 1
-219 -3 -75 -14 -110 -96 -60 -142 48 -45 106 -63 362 -118 264 -57 359 -93
447 -173 61 -55 91 -123 91 -207 0 -102 -25 -168 -87 -231 -101 -100 -241
-129 -586 -120 -152 4 -243 10 -280 21 -127 34 -243 117 -281 200 -18 40 -25
109 -13 140 11 29 60 45 134 45 88 0 121 -16 155 -74 49 -84 87 -95 347 -97
220 -1 260 6 283 51 22 43 18 69 -15 100 -38 36 -110 59 -324 105 -285 62
-416 113 -495 194 -63 65 -85 127 -79 220 3 37 15 89 27 116 79 179 278 235
731 205z m-4205 -10 c170 -25 289 -74 370 -155 104 -105 146 -232 146 -445 0
-279 -83 -443 -272 -533 -137 -65 -173 -70 -578 -74 l-363 -5 -24 23 c-22 21
-24 30 -24 116 l0 93 294 0 c411 0 508 17 580 102 54 63 71 132 70 283 -1 155
-22 226 -85 286 -75 73 -181 89 -586 89 l-273 0 0 90 c0 83 2 93 25 115 l24
25 313 0 c172 0 345 -5 383 -10z m3312 -12 c20 -19 23 -31 23 -93 0 -119 36
-109 -427 -115 l-398 -5 -3 -127 -3 -127 347 -3 346 -3 19 -24 c22 -27 27
-123 8 -164 -20 -45 -41 -47 -390 -47 l-330 0 3 -127 3 -128 392 -3 392 -2 20
-26 c30 -38 30 -140 0 -178 l-20 -26 -527 0 -526 0 -23 22 -23 21 0 566 0 565
22 23 21 23 526 0 525 0 23 -22z m-1757 -1503 c221 -50 360 -179 418 -387 13
-49 17 -101 16 -233 0 -157 -2 -176 -27 -252 -77 -232 -249 -348 -549 -372
-360 -29 -621 76 -723 291 -47 100 -65 189 -65 336 0 392 160 580 545 636 67
10 313 -2 385 -19z m-1081 -10 c38 -19 41 -31 41 -136 l0 -89 -326 0 c-357 0
-426 -8 -501 -57 -79 -51 -123 -164 -123 -318 0 -148 42 -264 115 -314 75 -51
105 -55 483 -59 l352 -3 0 -95 c0 -103 -11 -126 -66 -140 -14 -4 -171 -4 -347
-1 -270 5 -337 9 -414 25 -235 51 -369 175 -419 389 -22 92 -22 304 0 396 57
244 224 372 526 406 41 5 205 9 363 10 235 1 293 -2 316 -14z m2570 -23 c230
-65 348 -193 388 -419 18 -104 13 -297 -11 -382 -51 -185 -177 -305 -371 -355
-110 -28 -227 -36 -521 -36 -280 0 -292 1 -318 21 l-26 20 0 568 c0 504 2 569
16 590 l16 22 377 -4 c344 -3 382 -6 450 -25z m1708 6 c20 -18 23 -31 23 -90
0 -60 -3 -72 -25 -93 l-24 -25 -391 0 -390 0 0 -130 0 -130 339 0 c408 0 386
6 386 -115 0 -121 22 -115 -386 -115 l-339 0 0 -130 0 -130 386 0 386 0 29
-29 c25 -25 29 -37 29 -85 0 -66 -14 -100 -47 -115 -16 -8 -181 -11 -533 -11
l-509 0 -28 24 -28 24 0 565 c0 541 1 566 19 586 19 21 23 21 549 21 l531 0
23 -22z"/>
<path d="M2768 5398 c-42 -11 -112 -68 -133 -108 -13 -25 -95 -303 -95 -322 0
-5 122 -8 270 -8 l270 0 0 225 0 225 -137 -1 c-76 -1 -154 -5 -175 -11z"/>
<path d="M2651 3899 c-82 -26 -148 -90 -182 -175 -21 -53 -24 -74 -24 -214 0
-140 3 -161 24 -214 30 -76 87 -137 154 -167 71 -31 238 -39 322 -14 161 46
227 160 229 390 1 156 -23 239 -89 312 -65 74 -123 96 -260 100 -91 2 -121 -1
-174 -18z"/>
<path d="M2701 2389 c-166 -29 -247 -126 -273 -326 -22 -170 22 -336 109 -413
66 -58 126 -75 263 -75 105 0 120 2 175 28 97 45 140 100 170 212 19 72 21
252 4 321 -29 119 -104 207 -201 237 -68 21 -178 29 -247 16z"/>
<path d="M3980 1984 l0 -376 203 4 c228 5 284 18 345 80 58 61 75 118 80 261
7 208 -32 308 -140 361 -72 34 -155 46 -335 46 l-153 0 0 -376z"/>
</g>
</svg>
