<?xml version="1.0" encoding="UTF-8" standalone="no"?>
<!DOCTYPE svg PUBLIC "-//W3C//DTD SVG 1.1//EN" "http://www.w3.org/Graphics/SVG/1.1/DTD/svg11.dtd">
<svg width="100%" height="100%" viewBox="0 0 1283 101" version="1.1" xmlns="http://www.w3.org/2000/svg" xmlns:xlink="http://www.w3.org/1999/xlink" xml:space="preserve" xmlns:serif="http://www.serif.com/" style="fill-rule:evenodd;clip-rule:evenodd;stroke-linejoin:round;stroke-miterlimit:2;">
    <g transform="matrix(1,0,0,1,-4,-1587)">
        <g id="_00-Logo-Horizontal-Light-Transparent" serif:id="00-Logo-Horizontal-Light-Transparent" transform="matrix(1.78056,0,0,0.0806452,4.52099,1587.8)">
            <rect x="0" y="0" width="720" height="1240" style="fill:none;"/>
            <clipPath id="_clip1">
                <rect x="0" y="0" width="720" height="1240"/>
            </clipPath>
            <g clip-path="url(#_clip1)">
                <g transform="matrix(0.577964,0,0,12.7608,-1710.98,-7713.77)">
                    <g>
                        <g>
                            <g>
                                <g transform="matrix(1,0,0,1,-100.266,68.6054)">
                                    <g transform="matrix(2.77327,0,8.241e-17,2.77327,-4601.1,-701.92)">
                                        <path d="M2762.71,453.641L2762.71,449.323C2762.71,448.682 2762.93,448.143 2763.37,447.706C2763.81,447.268 2764.33,447.049 2764.94,447.049L2778.04,447.049C2784.82,447.049 2789.76,448.405 2792.84,451.116C2795.93,453.827 2797.47,458.077 2797.47,463.866C2797.47,469.655 2795.93,473.901 2792.84,476.604C2789.76,479.307 2784.82,480.659 2778.04,480.659L2764.94,480.659C2764.33,480.659 2763.81,480.452 2763.37,480.038C2762.93,479.624 2762.71,479.112 2762.71,478.503L2762.71,474.057L2776.99,474.057L2776.99,474.026L2777.78,474.026C2781.99,474.026 2784.85,473.26 2786.36,471.729C2787.88,470.198 2788.63,467.577 2788.63,463.866C2788.63,460.155 2787.88,457.53 2786.36,455.991C2784.85,454.452 2781.99,453.682 2777.78,453.682L2776.99,453.682L2776.99,453.641L2762.71,453.641Z" style="fill:rgb(35,35,35);"/>
                                    </g>
                                    <g transform="matrix(2.77327,0,8.241e-17,2.77327,-4601.1,-701.92)">
                                        <path d="M2799.51,478.503L2805.39,456.19C2806.99,450.112 2812.17,447.065 2820.95,447.049L2833.59,447.049C2834.16,447.049 2834.65,447.268 2835.03,447.706C2835.41,448.143 2835.6,448.651 2835.6,449.229L2835.6,478.503C2835.6,479.112 2835.38,479.624 2834.95,480.038C2834.51,480.452 2833.99,480.659 2833.38,480.659L2828.97,480.659C2828.33,480.659 2827.8,480.452 2827.39,480.038C2826.97,479.624 2826.77,479.096 2826.77,478.456L2826.77,472.549L2810.1,472.549L2808.53,478.456C2808.38,479.096 2808.02,479.624 2807.48,480.038C2806.93,480.452 2806.35,480.659 2805.74,480.659L2801.13,480.659C2800.52,480.659 2800.08,480.483 2799.81,480.132C2799.55,479.78 2799.42,479.471 2799.43,479.206C2799.43,478.94 2799.46,478.706 2799.51,478.503ZM2811.84,465.917L2826.77,465.917L2826.77,453.682L2820.09,453.682C2818.59,453.682 2817.28,454.108 2816.16,454.96C2815.04,455.811 2814.29,456.956 2813.9,458.393L2811.84,465.917Z" style="fill:rgb(35,35,35);fill-rule:nonzero;"/>
                                    </g>
                                    <g transform="matrix(2.77327,0,8.241e-17,2.77327,-4601.1,-701.92)">
                                        <path d="M2842.31,478.456L2842.31,449.276C2842.31,448.667 2842.52,448.143 2842.94,447.706C2843.36,447.268 2843.88,447.049 2844.49,447.049L2851.38,447.049C2851.92,447.049 2852.5,447.268 2853.11,447.706C2853.72,448.143 2854.22,448.667 2854.61,449.276L2868.77,471.049L2868.77,449.229C2868.77,448.62 2868.98,448.104 2869.41,447.682C2869.84,447.26 2870.36,447.049 2870.97,447.049L2875,447.049C2875.61,447.049 2876.13,447.26 2876.56,447.682C2876.99,448.104 2877.2,448.635 2877.2,449.276L2877.2,478.456C2877.2,479.065 2876.99,479.585 2876.56,480.014C2876.13,480.444 2875.61,480.659 2875,480.659L2867.22,480.659C2866.61,480.659 2865.99,480.444 2865.35,480.014C2864.7,479.585 2864.2,479.065 2863.82,478.456L2850.86,458.346L2850.86,478.456C2850.86,479.065 2850.65,479.585 2850.22,480.014C2849.79,480.444 2849.27,480.659 2848.66,480.659L2844.53,480.659C2843.92,480.659 2843.4,480.444 2842.96,480.014C2842.52,479.585 2842.31,479.065 2842.31,478.456Z" style="fill:rgb(35,35,35);fill-rule:nonzero;"/>
                                    </g>
                                </g>
                                <g transform="matrix(1,0,0,1,265.838,-46.9251)">
                                    <g transform="matrix(2.77327,0,8.241e-17,2.77327,-4601.1,-701.92)">
                                        <path d="M2762.71,495.276L2762.71,490.97C2762.71,490.329 2762.93,489.79 2763.37,489.353C2763.81,488.915 2764.33,488.696 2764.94,488.696L2778.04,488.696C2784.82,488.696 2789.76,490.052 2792.84,492.763C2795.93,495.474 2797.47,499.724 2797.47,505.513C2797.47,511.302 2795.93,515.548 2792.84,518.251C2789.76,520.954 2784.82,522.306 2778.04,522.306L2764.94,522.306C2764.33,522.306 2763.81,522.099 2763.37,521.685C2762.93,521.271 2762.71,520.759 2762.71,520.15L2762.71,515.692L2776.99,515.692L2776.99,515.673L2777.78,515.673C2781.99,515.673 2784.85,514.907 2786.36,513.376C2787.88,511.845 2788.63,509.224 2788.63,505.513C2788.63,501.802 2787.88,499.177 2786.36,497.638C2784.85,496.099 2781.99,495.329 2777.78,495.329L2776.99,495.329L2776.99,495.276L2762.71,495.276Z" style="fill:rgb(14,165,233);"/>
                                    </g>
                                    <g transform="matrix(2.77327,0,8.241e-17,2.77327,-4601.1,-701.92)">
                                        <path d="M2833.28,518.837C2830.1,521.634 2825.41,523.032 2819.23,523.032C2813.05,523.032 2808.36,521.63 2805.16,518.825C2801.95,516.021 2800.35,511.579 2800.35,505.501C2800.35,499.423 2801.95,494.985 2805.16,492.189C2808.36,489.392 2813.05,487.993 2819.23,487.993C2825.41,487.993 2830.1,489.392 2833.29,492.189C2836.49,494.985 2838.09,499.423 2838.09,505.501C2838.09,511.579 2836.49,516.025 2833.28,518.837ZM2826.88,497.134C2825.31,495.259 2822.76,494.321 2819.23,494.321C2815.71,494.321 2813.15,495.259 2811.57,497.134C2809.98,499.009 2809.19,501.802 2809.19,505.513C2809.19,509.224 2809.98,512.013 2811.57,513.88C2813.15,515.747 2815.71,516.681 2819.23,516.681C2822.76,516.681 2825.31,515.747 2826.88,513.88C2828.46,512.013 2829.25,509.224 2829.25,505.513C2829.25,501.802 2828.46,499.009 2826.88,497.134Z" style="fill:rgb(14,165,233);fill-rule:nonzero;"/>
                                    </g>
                                    <g transform="matrix(2.77327,0,8.241e-17,2.77327,-4601.1,-701.92)">
                                        <path d="M2842.89,520.056L2842.89,490.876C2842.89,490.267 2843.11,489.751 2843.55,489.329C2843.99,488.907 2844.51,488.696 2845.12,488.696L2872.14,488.696C2872.75,488.696 2873.27,488.915 2873.7,489.353C2874.13,489.79 2874.35,490.314 2874.35,490.923L2874.35,493.126C2874.35,493.735 2874.13,494.255 2873.7,494.685C2873.27,495.114 2872.75,495.329 2872.14,495.329L2851.73,495.329L2851.73,502.15L2869.31,502.15C2869.91,502.15 2870.43,502.364 2870.86,502.794C2871.29,503.224 2871.51,503.743 2871.51,504.353L2871.51,506.556C2871.51,507.165 2871.29,507.685 2870.86,508.114C2870.43,508.544 2869.91,508.759 2869.31,508.759L2851.73,508.759L2851.73,515.673L2872.1,515.673C2872.69,515.673 2873.2,515.884 2873.62,516.306C2874.04,516.728 2874.25,517.243 2874.25,517.853L2874.25,520.103C2874.25,520.712 2874.03,521.232 2873.6,521.661C2873.16,522.091 2872.63,522.306 2872.02,522.306L2845.12,522.306C2844.51,522.306 2843.99,522.091 2843.55,521.661C2843.11,521.232 2842.89,520.696 2842.89,520.056Z" style="fill:rgb(14,165,233);fill-rule:nonzero;"/>
                                    </g>
                                    <g transform="matrix(2.77327,0,8.241e-17,2.77327,-4601.1,-701.92)">
                                        <path d="M2876.74,513.704C2876.74,512.782 2877.01,512.122 2877.56,511.724C2878.1,511.325 2878.63,511.126 2879.15,511.126L2881.94,511.126C2883.35,511.126 2884.41,511.892 2885.15,513.423C2885.88,514.954 2887.53,515.72 2890.1,515.72L2898.3,515.884C2901.05,515.884 2902.42,514.985 2902.42,513.189C2902.42,511.829 2900.74,510.759 2897.38,509.978C2895.88,509.618 2894.23,509.263 2892.41,508.911C2890.6,508.56 2888.8,508.118 2887.01,507.587C2885.22,507.056 2883.58,506.431 2882.08,505.712C2880.58,504.993 2879.36,504.005 2878.43,502.747C2877.51,501.489 2877.04,500.009 2877.04,498.306C2877.04,495.165 2878.16,492.747 2880.39,491.052C2882.63,489.357 2886.47,488.509 2891.92,488.509L2897.88,488.65C2901.08,488.65 2903.97,489.474 2906.54,491.122C2909.11,492.771 2910.39,494.829 2910.39,497.298C2910.39,498.22 2910.12,498.884 2909.57,499.29C2909.02,499.696 2908.5,499.9 2908,499.9L2905.21,499.9C2903.81,499.9 2902.74,499.13 2902,497.591C2901.27,496.052 2899.62,495.282 2897.06,495.282L2890,495.142C2887.25,495.142 2885.88,496.04 2885.88,497.837C2885.88,498.821 2886.75,499.626 2888.49,500.251C2890.23,500.876 2892.34,501.427 2894.82,501.903C2897.29,502.38 2899.78,502.954 2902.28,503.626C2904.78,504.298 2906.9,505.403 2908.65,506.943C2910.39,508.482 2911.26,510.4 2911.26,512.696C2911.26,515.837 2910.14,518.255 2907.9,519.95C2905.65,521.646 2901.81,522.493 2896.38,522.493L2889.27,522.353C2886.07,522.353 2883.18,521.528 2880.6,519.88C2878.02,518.232 2876.74,516.173 2876.74,513.704Z" style="fill:rgb(14,165,233);fill-rule:nonzero;"/>
                                    </g>
                                </g>
                                <g transform="matrix(1.93584,0,0,1.93584,-1486.44,-512.826)">
                                    <g transform="matrix(1.43259,0,4.25706e-17,1.43259,-1233.49,-181.584)">
                                        <path d="M2832.93,560.484C2829.74,563.281 2825.06,564.679 2818.88,564.679C2812.7,564.679 2808.01,563.277 2804.81,560.472C2801.6,557.668 2800,553.226 2800,547.148C2800,541.07 2801.6,536.632 2804.81,533.836C2808.01,531.039 2812.7,529.64 2818.88,529.64C2825.06,529.64 2829.75,531.039 2832.94,533.836C2836.14,536.632 2837.74,541.07 2837.74,547.148C2837.74,553.226 2836.13,557.671 2832.93,560.484ZM2826.53,538.781C2824.95,536.906 2822.4,535.968 2818.88,535.968C2815.36,535.968 2812.8,536.906 2811.22,538.781C2809.63,540.656 2808.84,543.449 2808.84,547.16C2808.84,550.871 2809.63,553.66 2811.22,555.527C2812.8,557.394 2815.36,558.328 2818.88,558.328C2822.4,558.328 2824.95,557.394 2826.53,555.527C2828.11,553.66 2828.9,550.871 2828.9,547.16C2828.9,543.449 2828.11,540.656 2826.53,538.781Z" style="fill:rgb(14,165,233);fill-rule:nonzero;"/>
                                    </g>
                                    <g transform="matrix(1.43259,0,4.25706e-17,1.43259,-1233.49,-181.584)">
                                        <path d="M2842.54,561.796L2842.54,532.617C2842.54,531.976 2842.76,531.437 2843.2,531C2843.63,530.562 2844.16,530.343 2844.77,530.343L2857.87,530.343C2864.65,530.343 2869.58,531.699 2872.67,534.41C2875.76,537.121 2877.3,541.371 2877.3,547.16C2877.3,552.949 2875.76,557.195 2872.67,559.898C2869.58,562.601 2864.65,563.953 2857.87,563.953L2844.77,563.953C2844.16,563.953 2843.63,563.746 2843.2,563.332C2842.76,562.918 2842.54,562.406 2842.54,561.796ZM2851.38,557.32L2857.61,557.32C2861.81,557.32 2864.67,556.554 2866.19,555.023C2867.7,553.492 2868.46,550.871 2868.46,547.16C2868.46,543.449 2867.7,540.824 2866.19,539.285C2864.67,537.746 2861.81,536.976 2857.61,536.976L2851.38,536.976L2851.38,557.32Z" style="fill:rgb(14,165,233);fill-rule:nonzero;"/>
                                    </g>
                                    <g transform="matrix(1.43259,0,4.25706e-17,1.43259,-1233.49,-181.584)">
                                        <path d="M2882.1,561.703L2882.1,532.523C2882.1,531.914 2882.32,531.398 2882.76,530.976C2883.2,530.554 2883.72,530.343 2884.33,530.343L2911.35,530.343C2911.96,530.343 2912.48,530.562 2912.91,531C2913.34,531.437 2913.56,531.961 2913.56,532.57L2913.56,534.773C2913.56,535.382 2913.34,535.902 2912.91,536.332C2912.48,536.761 2911.96,536.976 2911.35,536.976L2890.94,536.976L2890.94,543.796L2908.52,543.796C2909.13,543.796 2909.65,544.011 2910.08,544.441C2910.51,544.871 2910.72,545.39 2910.72,546L2910.72,548.203C2910.72,548.812 2910.51,549.332 2910.08,549.761C2909.65,550.191 2909.13,550.406 2908.52,550.406L2890.94,550.406L2890.94,557.32L2911.31,557.32C2911.9,557.32 2912.41,557.531 2912.83,557.953C2913.25,558.375 2913.46,558.89 2913.46,559.5L2913.46,561.75C2913.46,562.359 2913.24,562.879 2912.81,563.308C2912.37,563.738 2911.85,563.953 2911.24,563.953L2884.33,563.953C2883.72,563.953 2883.2,563.738 2882.76,563.308C2882.32,562.879 2882.1,562.343 2882.1,561.703Z" style="fill:rgb(14,165,233);fill-rule:nonzero;"/>
                                    </g>
                                    <g transform="matrix(-1.43259,0,-4.25706e-17,1.43259,6731.74,-122.014)">
                                        <path d="M2762.71,515.692L2762.71,520.15C2762.71,520.759 2762.93,521.271 2763.37,521.685C2763.81,522.099 2764.33,522.306 2764.94,522.306L2778.04,522.306C2784.82,522.306 2789.76,520.954 2792.84,518.251C2795.93,515.548 2797.47,511.302 2797.47,505.513C2797.47,499.724 2795.93,495.474 2792.84,492.763C2789.76,490.052 2784.82,488.696 2778.04,488.696L2764.94,488.696C2764.33,488.696 2763.81,488.915 2763.37,489.353C2762.93,489.79 2762.71,490.329 2762.71,490.97L2762.71,495.276L2776.99,495.276L2776.99,495.329L2777.78,495.329C2781.99,495.329 2784.85,496.099 2786.36,497.638C2787.88,499.177 2788.63,501.802 2788.63,505.513C2788.63,509.224 2787.88,511.845 2786.36,513.376C2784.85,514.907 2781.99,515.673 2777.78,515.673L2776.99,515.673L2776.99,515.692L2762.71,515.692Z" style="fill:rgb(14,165,233);"/>
                                    </g>
                                </g>
                            </g>
                        </g>
                    </g>
                </g>
            </g>
        </g>
    </g>
</svg>
